<svg xmlns="http://www.w3.org/2000/svg" width="24" height="24" fill="none" viewBox="0 0 24 24" id="device-theme"><g clip-path="url(#clip0_343_1156)"><path fill="#3747D6" d="M13.3661 0.909516C12.5972 0.189788 11.4018 0.189789 10.6328 0.909516L8.30721 3.08614L5.12366 3.19147C4.07099 3.2263 3.22572 4.07157 3.19089 5.12424L3.08556 8.30779L0.908936 10.6334C0.189208 11.4024 0.189209 12.5977 0.908936 13.3667L3.08556 15.6923L3.19089 18.8759C3.22572 19.9285 4.07099 20.7738 5.12366 20.8086L8.30721 20.914L10.6328 23.0906C11.4018 23.8103 12.5972 23.8103 13.3661 23.0906L15.6917 20.914L18.8753 20.8086C19.928 20.7738 20.7732 19.9285 20.808 18.8759L20.9134 15.6923L23.09 13.3667C23.8097 12.5977 23.8097 11.4024 23.09 10.6334L20.9134 8.30779L20.808 5.12424C20.7732 4.07157 19.928 3.2263 18.8753 3.19147L15.6917 3.08614L13.3661 0.909516Z"></path><path fill="#90CAEA" d="M11.5 4.99994C10.4609 4.99994 9.47214 5.22699 8.58287 5.63513C8.22768 5.79816 8 6.15316 8 6.54398C8 6.9348 8.22768 7.28981 8.58287 7.45283C10.3064 8.24386 11.5 9.98356 11.5 11.9999C11.5 14.0163 10.3064 15.756 8.58287 16.547C8.22768 16.7101 8 17.0651 8 17.4559C8 17.8467 8.22768 18.2017 8.58287 18.3647C9.47214 18.7729 10.4609 18.9999 11.5 18.9999C15.366 18.9999 18.5 15.8659 18.5 11.9999C18.5 8.13395 15.366 4.99994 11.5 4.99994Z"></path></g><defs><clipPath id="clip0_343_1156"><rect width="24" height="24" fill="#fff"></rect></clipPath></defs></svg>
